<?xml version="1.0" encoding="UTF-8" standalone="no"?>
<!-- Generator: Adobe Illustrator 19.0.0, SVG Export Plug-In . SVG Version: 6.00 Build 0)  -->

<svg
   xmlns:dc="http://purl.org/dc/elements/1.1/"
   xmlns:cc="http://creativecommons.org/ns#"
   xmlns:rdf="http://www.w3.org/1999/02/22-rdf-syntax-ns#"
   xmlns:svg="http://www.w3.org/2000/svg"
   xmlns="http://www.w3.org/2000/svg"
   xmlns:sodipodi="http://sodipodi.sourceforge.net/DTD/sodipodi-0.dtd"
   xmlns:inkscape="http://www.inkscape.org/namespaces/inkscape"
   version="1.1"
   id="Capa_1"
   x="0px"
   y="0px"
   viewBox="0 0 53 53"
   style="enable-background:new 0 0 53 53;"
   xml:space="preserve"
   inkscape:version="0.91 r13725"
   sodipodi:docname="collection_icon.svg"><metadata
     id="metadata65"><rdf:RDF><cc:Work
         rdf:about=""><dc:format>image/svg+xml</dc:format><dc:type
           rdf:resource="http://purl.org/dc/dcmitype/StillImage" /><dc:title></dc:title></cc:Work></rdf:RDF></metadata><defs
     id="defs63" /><sodipodi:namedview
     pagecolor="#ffffff"
     bordercolor="#666666"
     borderopacity="1"
     objecttolerance="10"
     gridtolerance="10"
     guidetolerance="10"
     inkscape:pageopacity="0"
     inkscape:pageshadow="2"
     inkscape:window-width="1025"
     inkscape:window-height="713"
     id="namedview61"
     showgrid="false"
     inkscape:zoom="4.4528302"
     inkscape:cx="26.5"
     inkscape:cy="26.5"
     inkscape:window-x="1579"
     inkscape:window-y="172"
     inkscape:window-maximized="0"
     inkscape:current-layer="Capa_1" /><path
     style="fill:#424A60;"
     d="M50.455,8L50.455,8C49.724,3.538,39.281,0,26.5,0S3.276,3.538,2.545,8l0,0H2.5v0.5V20v0.5V21v11v0.5  V33v12h0.045c0.731,4.461,11.175,8,23.955,8s23.224-3.539,23.955-8H50.5V33v-0.5V32V21v-0.5V20V8.5V8H50.455z"
     id="path3" /><g
     id="g5"
     style="fill:#389198;fill-opacity:1"><path
       style="fill:#389198;fill-opacity:1"
       d="M26.5,41c-13.255,0-24-3.806-24-8.5V45h0.045c0.731,4.461,11.175,8,23.955,8s23.224-3.539,23.955-8   H50.5V32.5C50.5,37.194,39.755,41,26.5,41z"
       id="path7" /><path
       style="fill:#389198;fill-opacity:1"
       d="M2.5,32v0.5c0-0.168,0.018-0.334,0.045-0.5H2.5z"
       id="path9" /><path
       style="fill:#389198;fill-opacity:1"
       d="M50.455,32c0.027,0.166,0.045,0.332,0.045,0.5V32H50.455z"
       id="path11" /></g><g
     id="g13"
     style="fill:#a8c813;fill-opacity:1"><path
       style="fill:#a8c813;fill-opacity:1"
       d="M26.5,29c-13.255,0-24-3.806-24-8.5V33h0.045c0.731,4.461,11.175,8,23.955,8s23.224-3.539,23.955-8   H50.5V20.5C50.5,25.194,39.755,29,26.5,29z"
       id="path15" /><path
       style="fill:#a8c813;fill-opacity:1"
       d="M2.5,20v0.5c0-0.168,0.018-0.334,0.045-0.5H2.5z"
       id="path17" /><path
       style="fill:#a8c813;fill-opacity:1"
       d="M50.455,20c0.027,0.166,0.045,0.332,0.045,0.5V20H50.455z"
       id="path19" /></g><ellipse
     style="fill:#cecab4;fill-opacity:1"
     cx="26.5"
     cy="8.5"
     rx="24"
     ry="8.5"
     id="ellipse21" /><g
     id="g23"
     style="fill:#cecab4;fill-opacity:1"><path
       style="fill:#cecab4;fill-opacity:1"
       d="M26.5,17c-13.255,0-24-3.806-24-8.5V21h0.045c0.731,4.461,11.175,8,23.955,8s23.224-3.539,23.955-8   H50.5V8.5C50.5,13.194,39.755,17,26.5,17z"
       id="path25" /><path
       style="fill:#cecab4;fill-opacity:1"
       d="M2.5,8v0.5c0-0.168,0.018-0.334,0.045-0.5H2.5z"
       id="path27" /><path
       style="fill:#cecab4;fill-opacity:1"
       d="M50.455,8C50.482,8.166,50.5,8.332,50.5,8.5V8H50.455z"
       id="path29" /></g><g
     id="g31" /><g
     id="g33" /><g
     id="g35" /><g
     id="g37" /><g
     id="g39" /><g
     id="g41" /><g
     id="g43" /><g
     id="g45" /><g
     id="g47" /><g
     id="g49" /><g
     id="g51" /><g
     id="g53" /><g
     id="g55" /><g
     id="g57" /><g
     id="g59" /></svg>